<svg xmlns="http://www.w3.org/2000/svg" xmlns:xlink="http://www.w3.org/1999/xlink" contentStyleType="text/css" data-diagram-type="DESCRIPTION" height="880px" preserveAspectRatio="none" style="width:1455px;height:880px;background:#FFFFFF;" version="1.1" viewBox="0 0 1455 880" width="1455px" zoomAndPan="magnify"><?plantuml 1.2026.6?><defs/><g><!--cluster frontend/  (Next.js, feature-sliced design)--><g class="cluster" data-qualified-name="frontend.  .Next.js. feature-sliced design." data-source-line="18" id="ent0001"><path d="M10,6 L337.1504,6 A6,6 0 0 1 341.1504,10 L348.1504,28.2969 L859,28.2969 A4,4 0 0 1 863,32.2969 L863,429.45 A4,4 0 0 1 859,433.45 L10,433.45 A4,4 0 0 1 6,429.45 L6,10 A4,4 0 0 1 10,6" fill="#FBFBFB" style="stroke:#9AA5B1;stroke-width:1.5;"/><line style="stroke:#9AA5B1;stroke-width:1.5;" x1="6" x2="348.1504" y1="28.2969" y2="28.2969"/><text fill="#000000" font-family="'Segoe UI'" font-size="14" font-weight="700" lengthAdjust="spacing" textLength="329.1504" x="10" y="20.9951">frontend/  (Next.js, feature-sliced design)</text></g><!--cluster @portfolio/backend  (in-process library)--><g class="cluster" data-qualified-name=".portfolio.backend  .in-process library." data-source-line="28" id="ent0009"><path d="M618,497.45 L930.8359,497.45 A6,6 0 0 1 934.8359,501.45 L941.8359,519.7469 L1089,519.7469 A4,4 0 0 1 1093,523.7469 L1093,759.52 A4,4 0 0 1 1089,763.52 L618,763.52 A4,4 0 0 1 614,759.52 L614,501.45 A4,4 0 0 1 618,497.45" fill="#FBFBFB" style="stroke:#9AA5B1;stroke-width:1.5;"/><line style="stroke:#9AA5B1;stroke-width:1.5;" x1="614" x2="941.8359" y1="519.7469" y2="519.7469"/><text fill="#000000" font-family="'Segoe UI'" font-size="14" font-weight="700" lengthAdjust="spacing" textLength="314.8359" x="618" y="512.4451">@portfolio/backend  (in-process library)</text></g><!--entity app--><g class="entity" data-qualified-name="frontend.  .Next.js. feature-sliced design..app" data-source-line="19" id="ent0002"><rect fill="#F4F7FB" height="68.8906" rx="4" ry="4" style="stroke:#33475B;stroke-width:0.5;" width="226.8076" x="383.6" y="41"/><text fill="#000000" font-family="'Segoe UI'" font-size="14" lengthAdjust="spacing" textLength="31.0693" x="393.6" y="63.9951">app/</text><text fill="#000000" font-family="'Segoe UI'" font-size="14" lengthAdjust="spacing" textLength="179.7441" x="393.6" y="80.292">Route Handlers + layouts</text><text fill="#000000" font-family="'Segoe UI'" font-size="14" lengthAdjust="spacing" textLength="206.8076" x="393.6" y="96.5889">(thin layer, no business logic)</text></g><!--entity proxy--><g class="entity" data-qualified-name="frontend.  .Next.js. feature-sliced design..proxy" data-source-line="20" id="ent0003"><rect fill="#F4F7FB" height="52.5938" rx="4" ry="4" style="stroke:#33475B;stroke-width:0.5;" width="201.4736" x="645.26" y="49.15"/><text fill="#000000" font-family="'Segoe UI'" font-size="14" lengthAdjust="spacing" textLength="57.0117" x="655.26" y="72.1451">proxy.ts</text><text fill="#000000" font-family="'Segoe UI'" font-size="14" lengthAdjust="spacing" textLength="181.4736" x="655.26" y="88.442">(Edge: rate-limit + locale)</text></g><!--entity views--><g class="entity" data-qualified-name="frontend.  .Next.js. feature-sliced design..views" data-source-line="21" id="ent0004"><rect fill="#F4F7FB" height="68.8906" rx="4" ry="4" style="stroke:#33475B;stroke-width:0.5;" width="164.2041" x="414.9" y="179.28"/><text fill="#000000" font-family="'Segoe UI'" font-size="14" lengthAdjust="spacing" textLength="44.249" x="424.9" y="202.2751">views/</text><text fill="#000000" font-family="'Segoe UI'" font-size="14" lengthAdjust="spacing" textLength="124.7695" x="424.9" y="218.572">page composition</text><text fill="#000000" font-family="'Segoe UI'" font-size="14" lengthAdjust="spacing" textLength="144.2041" x="424.9" y="234.8689">(admin-* and public)</text></g><!--entity widgets--><g class="entity" data-qualified-name="frontend.  .Next.js. feature-sliced design..widgets" data-source-line="22" id="ent0005"><rect fill="#F4F7FB" height="68.8906" rx="4" ry="4" style="stroke:#33475B;stroke-width:0.5;" width="184.8486" x="427.58" y="348.55"/><text fill="#000000" font-family="'Segoe UI'" font-size="14" lengthAdjust="spacing" textLength="59.2266" x="437.58" y="371.5451">widgets/</text><text fill="#000000" font-family="'Segoe UI'" font-size="14" lengthAdjust="spacing" textLength="164.8486" x="437.58" y="387.842">nav, footer, AppLayout,</text><text fill="#000000" font-family="'Segoe UI'" font-size="14" lengthAdjust="spacing" textLength="72.2012" x="437.58" y="404.1389">AdminNav</text></g><!--entity feature--><g class="entity" data-qualified-name="frontend.  .Next.js. feature-sliced design..feature" data-source-line="23" id="ent0006"><rect fill="#F4F7FB" height="68.8906" rx="4" ry="4" style="stroke:#33475B;stroke-width:0.5;" width="199.5801" x="647.21" y="348.55"/><text fill="#000000" font-family="'Segoe UI'" font-size="14" lengthAdjust="spacing" textLength="55.5693" x="657.21" y="371.5451">feature/</text><text fill="#000000" font-family="'Segoe UI'" font-size="14" lengthAdjust="spacing" textLength="99.0596" x="657.21" y="387.842">theme-toggle,</text><text fill="#000000" font-family="'Segoe UI'" font-size="14" lengthAdjust="spacing" textLength="179.5801" x="657.21" y="404.1389">DesignSystemPlayground</text></g><!--entity sharedui--><g class="entity" data-qualified-name="frontend.  .Next.js. feature-sliced design..sharedui" data-source-line="24" id="ent0007"><rect fill="#F4F7FB" height="68.8906" rx="4" ry="4" style="stroke:#33475B;stroke-width:0.5;" width="174.9639" x="21.52" y="348.55"/><text fill="#000000" font-family="'Segoe UI'" font-size="14" lengthAdjust="spacing" textLength="70.1982" x="31.52" y="371.5451">shared/ui/</text><text fill="#000000" font-family="'Segoe UI'" font-size="14" lengthAdjust="spacing" textLength="154.9639" x="31.52" y="387.842">block-editor, diagram,</text><text fill="#000000" font-family="'Segoe UI'" font-size="14" lengthAdjust="spacing" textLength="113.0801" x="31.52" y="404.1389">form, drawer, ...</text></g><!--entity sharedlib--><g class="entity" data-qualified-name="frontend.  .Next.js. feature-sliced design..sharedlib" data-source-line="25" id="ent0008"><rect fill="#F4F7FB" height="68.8906" rx="4" ry="4" style="stroke:#33475B;stroke-width:0.5;" width="160.8613" x="231.57" y="348.55"/><text fill="#000000" font-family="'Segoe UI'" font-size="14" lengthAdjust="spacing" textLength="74.1016" x="241.57" y="371.5451">shared/lib/</text><text fill="#000000" font-family="'Segoe UI'" font-size="14" lengthAdjust="spacing" textLength="120.1553" x="241.57" y="387.842">auth/, admin-api,</text><text fill="#000000" font-family="'Segoe UI'" font-size="14" lengthAdjust="spacing" textLength="140.8613" x="241.57" y="404.1389">render-with-fallback</text></g><!--entity auth--><g class="entity" data-qualified-name=".portfolio.backend  .in-process library..auth" data-source-line="29" id="ent0010"><rect fill="#F4F7FB" height="68.8906" rx="4" ry="4" style="stroke:#33475B;stroke-width:0.5;" width="189.627" x="876.19" y="532.45"/><text fill="#000000" font-family="'Segoe UI'" font-size="14" lengthAdjust="spacing" textLength="36.5313" x="886.19" y="555.4451">auth/</text><text fill="#000000" font-family="'Segoe UI'" font-size="14" lengthAdjust="spacing" textLength="152.1885" x="886.19" y="571.742">auth-service, session,</text><text fill="#000000" font-family="'Segoe UI'" font-size="14" lengthAdjust="spacing" textLength="169.627" x="886.19" y="588.0389">jwt, password, rate-limit</text></g><!--entity content--><g class="entity" data-qualified-name=".portfolio.backend  .in-process library..content" data-source-line="30" id="ent0011"><rect fill="#F4F7FB" height="68.8906" rx="4" ry="4" style="stroke:#33475B;stroke-width:0.5;" width="158.0996" x="666.95" y="532.45"/><text fill="#000000" font-family="'Segoe UI'" font-size="14" lengthAdjust="spacing" textLength="58.3174" x="676.95" y="555.4451">content/</text><text fill="#000000" font-family="'Segoe UI'" font-size="14" lengthAdjust="spacing" textLength="138.0996" x="676.95" y="571.742">posts, work, blocks,</text><text fill="#000000" font-family="'Segoe UI'" font-size="14" lengthAdjust="spacing" textLength="137.04" x="676.95" y="588.0389">lifecycle, document</text></g><!--entity db--><g class="entity" data-qualified-name=".portfolio.backend  .in-process library..db" data-source-line="31" id="ent0012"><rect fill="#F4F7FB" height="52.5938" rx="4" ry="4" style="stroke:#33475B;stroke-width:0.5;" width="208.7471" x="629.63" y="678.63"/><text fill="#000000" font-family="'Segoe UI'" font-size="14" lengthAdjust="spacing" textLength="22.4902" x="639.63" y="701.6251">db/</text><text fill="#000000" font-family="'Segoe UI'" font-size="14" lengthAdjust="spacing" textLength="188.7471" x="639.63" y="717.922">Prisma client + adapter-pg</text></g><!--entity errors--><g class="entity" data-qualified-name=".portfolio.backend  .in-process library..errors" data-source-line="32" id="ent0013"><rect fill="#F4F7FB" height="85.1875" rx="4" ry="4" style="stroke:#33475B;stroke-width:0.5;" width="203.791" x="873.1" y="662.34"/><text fill="#000000" font-family="'Segoe UI'" font-size="14" lengthAdjust="spacing" textLength="58.9736" x="883.1" y="685.3351">errors.ts</text><text fill="#000000" font-family="'Segoe UI'" font-size="14" lengthAdjust="spacing" textLength="183.791" x="883.1" y="701.632">DatabaseUnavailableError</text><text fill="#000000" font-family="'Segoe UI'" font-size="14" lengthAdjust="spacing" textLength="173.7764" x="883.1" y="717.9289">(distinguished by .name,</text><text fill="#000000" font-family="'Segoe UI'" font-size="14" lengthAdjust="spacing" textLength="105.6426" x="883.1" y="734.2257">not instanceof)</text></g><!--entity pg--><g class="entity" data-qualified-name="pg" data-source-line="35" id="ent0014"><path d="M683.62,820.52 C683.62,810.52 733.9965,810.52 733.9965,810.52 C733.9965,810.52 784.3729,810.52 784.3729,820.52 L784.3729,845.8169 C784.3729,855.8169 733.9965,855.8169 733.9965,855.8169 C733.9965,855.8169 683.62,855.8169 683.62,845.8169 L683.62,820.52" fill="#F1F1F1" style="stroke:#181818;stroke-width:0.5;"/><path d="M683.62,820.52 C683.62,830.52 733.9965,830.52 733.9965,830.52 C733.9965,830.52 784.3729,830.52 784.3729,820.52" fill="none" style="stroke:#181818;stroke-width:0.5;"/><text fill="#000000" font-family="'Segoe UI'" font-size="14" lengthAdjust="spacing" textLength="80.7529" x="693.62" y="847.5151">PostgreSQL</text></g><g class="entity" data-qualified-name="GMN30" data-source-line="54" id="ent0031"><path d="M926.77,174.89 L926.77,252.5541 A4,4 0 0 0 930.77,256.5541 L1275.2319,256.5541 A4,4 0 0 0 1279.2319,252.5541 L1279.2319,180.89 L1269.2319,170.89 L996.19,170.89 L813.57,102.24 L988.19,170.89 L930.77,170.89 A4,4 0 0 0 926.77,174.89" fill="#FEFFDD" style="stroke:#181818;stroke-width:0.5;"/><path d="M1269.2319,170.89 L1269.2319,178.89 A2,2 0 0 0 1271.2319,180.89 L1279.2319,180.89 L1269.2319,170.89" fill="#FEFFDD" style="stroke:#181818;stroke-width:0.5;"/><text fill="#000000" font-family="'Segoe UI'" font-size="13" lengthAdjust="spacing" textLength="331.4619" x="932.77" y="187.9569">Since 2026-07, authorization has moved out of the</text><text fill="#000000" font-family="'Segoe UI'" font-size="13" lengthAdjust="spacing" textLength="307.5884" x="932.77" y="203.0897">Edge proxy: only IP rate-limiting and locale live</text><text fill="#000000" font-family="'Segoe UI'" font-size="13" lengthAdjust="spacing" textLength="321.02" x="932.77" y="218.2225">here now. The real JWT check happens per Route</text><text fill="#000000" font-family="'Segoe UI'" font-size="13" lengthAdjust="spacing" textLength="314.209" x="932.77" y="233.3553">Handler/page (defineAdminRoute, requirePage),</text><text fill="#000000" font-family="'Segoe UI'" font-size="13" lengthAdjust="spacing" textLength="150.1729" x="932.77" y="248.4881">see 04-auth-flow.puml.</text></g><!--link app to views--><g class="link" data-entity-1="ent0002" data-entity-2="ent0004" data-link-type="dependency" data-source-line="37" id="lnk15"><path d="M497,110.13 C497,131.1 497,152.97 497,173.95" fill="none" id="app-to-views" style="stroke:#33475B;stroke-width:1;"/><polygon fill="#33475B" points="497,178.95,501,169.95,497,173.95,493,169.95,497,178.95" style="stroke:#33475B;stroke-width:1;stroke-linejoin:miter;stroke-miterlimit:10;"/></g><!--link app to auth--><g class="link" data-entity-1="ent0002" data-entity-2="ent0010" data-link-type="dependency" data-source-line="38" id="lnk16"><path d="M542.78,110.17 C639.58,181.52 856.82,341.81 864,348.55 C906.73,388.71 923.84,396.48 949,449.45 C961.4,475.56 966.3313,503.1039 968.6913,527.1339" fill="none" id="app-to-auth" style="stroke:#33475B;stroke-width:1;"/><polygon fill="#33475B" points="969.18,532.11,972.2812,522.7621,968.6913,527.1339,964.3195,523.5441,969.18,532.11" style="stroke:#33475B;stroke-width:1;stroke-linejoin:miter;stroke-miterlimit:10;"/><text fill="#000000" font-family="'Segoe UI'" font-size="13" lengthAdjust="spacing" textLength="73.144" x="828.1893" y="299.6169">/api/auth/*,</text><text fill="#000000" font-family="'Segoe UI'" font-size="13" lengthAdjust="spacing" textLength="80.2026" x="824.66" y="314.7497">/api/admin/*</text></g><!--link app to content--><g class="link" data-entity-1="ent0002" data-entity-2="ent0011" data-link-type="dependency" data-source-line="39" id="lnk17"><path d="M610.83,106.1 C616.63,107.42 622.37,108.69 628,109.89 C705.62,126.39 742.52,89.72 804,139.89 C924.34,238.1 963.92,352.05 878,481.45 C872.93,489.08 867.06,485.08 859,489.45 C835.99,501.92 815.8813,514.9857 795.8113,529.0857" fill="none" id="app-to-content" style="stroke:#33475B;stroke-width:1;"/><polygon fill="#33475B" points="791.72,531.96,801.3837,530.0593,795.8113,529.0857,796.7849,523.5133,791.72,531.96" style="stroke:#33475B;stroke-width:1;stroke-linejoin:miter;stroke-miterlimit:10;"/><text fill="#000000" font-family="'Segoe UI'" font-size="13" lengthAdjust="spacing" textLength="155.27" x="923.03" y="307.1169">/api/admin/posts|work/*</text></g><!--link views to widgets--><g class="link" data-entity-1="ent0004" data-entity-2="ent0005" data-link-type="dependency" data-source-line="40" id="lnk18"><path d="M501.65,248.57 C505.64,277.6 510.6787,314.2366 514.6687,343.2466" fill="none" id="views-to-widgets" style="stroke:#33475B;stroke-width:1;"/><polygon fill="#33475B" points="515.35,348.2,518.0864,338.7389,514.6687,343.2466,510.161,339.829,515.35,348.2" style="stroke:#33475B;stroke-width:1;stroke-linejoin:miter;stroke-miterlimit:10;"/></g><!--link views to feature--><g class="link" data-entity-1="ent0004" data-entity-2="ent0006" data-link-type="dependency" data-source-line="41" id="lnk19"><path d="M547.59,248.57 C590.97,277.6 648.9746,316.4092 692.3246,345.4192" fill="none" id="views-to-feature" style="stroke:#33475B;stroke-width:1;"/><polygon fill="#33475B" points="696.48,348.2,691.225,339.8703,692.3246,345.4192,686.7757,346.5189,696.48,348.2" style="stroke:#33475B;stroke-width:1;stroke-linejoin:miter;stroke-miterlimit:10;"/></g><!--link views to sharedui--><g class="link" data-entity-1="ent0004" data-entity-2="ent0007" data-link-type="dependency" data-source-line="42" id="lnk20"><path d="M418.48,248.57 C351.28,277.55 259.5913,317.07 192.3213,346.08" fill="none" id="views-to-sharedui" style="stroke:#33475B;stroke-width:1;"/><polygon fill="#33475B" points="187.73,348.06,197.5783,348.1691,192.3213,346.08,194.4103,340.823,187.73,348.06" style="stroke:#33475B;stroke-width:1;stroke-linejoin:miter;stroke-miterlimit:10;"/></g><!--link views to sharedlib--><g class="link" data-entity-1="ent0004" data-entity-2="ent0008" data-link-type="dependency" data-source-line="43" id="lnk21"><path d="M459.56,248.57 C427.47,277.6 385.1685,315.8364 353.0885,344.8464" fill="none" id="views-to-sharedlib" style="stroke:#33475B;stroke-width:1;"/><polygon fill="#33475B" points="349.38,348.2,358.7383,345.1303,353.0885,344.8464,353.3724,339.1966,349.38,348.2" style="stroke:#33475B;stroke-width:1;stroke-linejoin:miter;stroke-miterlimit:10;"/></g><!--link sharedlib to auth--><g class="link" data-entity-1="ent0008" data-entity-2="ent0010" data-link-type="dependency" data-source-line="44" id="lnk22"><path d="M360.68,417.94 C375.85,427 393.06,435.83 410,441.45 C421.49,445.26 831.53,485.59 843,489.45 C872.2,499.26 897.7489,513.6977 921.1789,529.3077" fill="none" id="sharedlib-to-auth" style="stroke:#33475B;stroke-width:1;"/><polygon fill="#33475B" points="925.34,532.08,920.0679,523.7611,921.1789,529.3077,915.6323,530.4188,925.34,532.08" style="stroke:#33475B;stroke-width:1;stroke-linejoin:miter;stroke-miterlimit:10;"/><text fill="#000000" font-family="'Segoe UI'" font-size="13" lengthAdjust="spacing" textLength="163.998" x="777.89" y="462.5169">@portfolio/backend/edge</text><text fill="#000000" font-family="'Segoe UI'" font-size="13" lengthAdjust="spacing" textLength="121.9194" x="798.9293" y="477.6497">(Edge-safe import)</text></g><!--link proxy to auth--><g class="link" data-entity-1="ent0003" data-entity-2="ent0010" data-link-type="dependency" data-source-line="45" id="lnk23"><path d="M847.07,78.78 C990.12,84.47 1240.58,103.97 1297,170.89 C1408.91,303.61 1164.8586,461.246 1040.6486,529.726" fill="none" id="proxy-to-auth" style="stroke:#33475B;stroke-width:1;"/><polygon fill="#33475B" points="1036.27,532.14,1046.0828,531.2976,1040.6486,529.726,1042.2203,524.2918,1036.27,532.14" style="stroke:#33475B;stroke-width:1;stroke-linejoin:miter;stroke-miterlimit:10;"/><text fill="#000000" font-family="'Segoe UI'" font-size="13" lengthAdjust="spacing" textLength="95.4561" x="1330.7512" y="299.6169">rate-limit only,</text><text fill="#000000" font-family="'Segoe UI'" font-size="13" lengthAdjust="spacing" textLength="121.9385" x="1317.51" y="314.7497">no JWT verification</text></g><!--link sharedui to content--><g class="link" data-entity-1="ent0007" data-entity-2="ent0011" data-link-type="dependency" data-source-line="46" id="lnk24"><path d="M166.39,417.8 C181.6,426.09 198.19,434.55 214,441.45 C366.59,507.98 555.0367,541.098 661.5867,555.768" fill="none" id="sharedui-to-content" style="stroke:#33475B;stroke-width:1;"/><polygon fill="#33475B" points="666.54,556.45,658.1697,551.2598,661.5867,555.768,657.0785,559.1851,666.54,556.45" style="stroke:#33475B;stroke-width:1;stroke-linejoin:miter;stroke-miterlimit:10;"/><text fill="#000000" font-family="'Segoe UI'" font-size="13" lengthAdjust="spacing" textLength="91.9077" x="333.4885" y="462.5169">block editor &#8596;</text><text fill="#000000" font-family="'Segoe UI'" font-size="13" lengthAdjust="spacing" textLength="133.8848" x="312.5" y="477.6497">BlockInput[] schema</text></g><!--link auth to db--><g class="link" data-entity-1="ent0010" data-entity-2="ent0012" data-link-type="dependency" data-source-line="47" id="lnk25"><path d="M912.11,601.69 C870.85,625.38 820.8763,654.0608 783.1263,675.7308" fill="none" id="auth-to-db" style="stroke:#33475B;stroke-width:1;"/><polygon fill="#33475B" points="778.79,678.22,788.5868,677.2085,783.1263,675.7308,784.604,670.2703,778.79,678.22" style="stroke:#33475B;stroke-width:1;stroke-linejoin:miter;stroke-miterlimit:10;"/></g><!--link content to db--><g class="link" data-entity-1="ent0011" data-entity-2="ent0012" data-link-type="dependency" data-source-line="48" id="lnk26"><path d="M743.03,601.52 C740.94,625.28 738.6101,651.6594 736.6901,673.3894" fill="none" id="content-to-db" style="stroke:#33475B;stroke-width:1;"/><polygon fill="#33475B" points="736.25,678.37,741.0266,669.757,736.6901,673.3894,733.0577,669.0529,736.25,678.37" style="stroke:#33475B;stroke-width:1;stroke-linejoin:miter;stroke-miterlimit:10;"/></g><!--link db to pg--><g class="link" data-entity-1="ent0012" data-entity-2="ent0014" data-link-type="dependency" data-source-line="49" id="lnk27"><path d="M734,731.48 C734,754.53 734,783.1 734,805.04" fill="none" id="db-to-pg" style="stroke:#33475B;stroke-width:1;"/><polygon fill="#33475B" points="734,810.04,738,801.04,734,805.04,730,801.04,734,810.04" style="stroke:#33475B;stroke-width:1;stroke-linejoin:miter;stroke-miterlimit:10;"/></g><!--link auth to errors--><g class="link" data-entity-1="ent0010" data-entity-2="ent0013" data-link-type="dependency" data-source-line="50" id="lnk28"><path d="M971.99,601.52 C972.53,619.77 973.0432,637.5122 973.6132,656.9222" fill="none" id="auth-to-errors" style="stroke:#33475B;stroke-width:1;stroke-dasharray:7,7;"/><polygon fill="#33475B" points="973.76,661.92,977.4941,652.8065,973.6132,656.9222,969.4975,653.0413,973.76,661.92" style="stroke:#33475B;stroke-width:1;stroke-linejoin:miter;stroke-miterlimit:10;"/></g><!--link content to errors--><g class="link" data-entity-1="ent0011" data-entity-2="ent0013" data-link-type="dependency" data-source-line="51" id="lnk29"><path d="M802.9,601.69 C833.63,619.95 867.5512,640.0965 900.1612,659.4665" fill="none" id="content-to-errors" style="stroke:#33475B;stroke-width:1;stroke-dasharray:7,7;"/><polygon fill="#33475B" points="904.46,662.02,898.7649,653.9847,900.1612,659.4665,894.6794,660.8628,904.46,662.02" style="stroke:#33475B;stroke-width:1;stroke-linejoin:miter;stroke-miterlimit:10;"/></g><?plantuml-src TLLDSzis4BthL-meXzYEIBgEKxS-P6hLTkjEnkDMINkeUm399OKO11W0bA9-pFJKNv1Vc5_I1v2oATSTNSJ5xiD-l7ruJWlJsOB9LEHjvvTK6KkbALmc6r6pomwFai8qhT6ilKlTggRFVtyYopLhji9pIVbcyfpIMlfbbsThO-ygPTOkiwnBjaafHMr5uz9DerAwAAKdlvIEAgbuHffNR65WMlpyNJfnTrAt0kwKY-AkjgRJvRT68QNrKdeUdRkbACrQwfegeTpuP0YoI8--6jdlgrZuZM9KK7YXQpKEFRFMhFlxdhryUNpoQZuwFETATCfV6kslHSCqNN1jcDvTJP-wXFwO4CqV5V7iylZov78UJen5StQl-ck4qo8IxVyVb7duFKRv-kpirVmBe4osmTFA8bcC8IFQk-QFFdtlPbIny9tbn2bPO7ebErdh_McywY7zgMZRx5R_P3hFzBtGfMBhw0KfiO79tUezJ567JxOOew6ySrApSwHCBGlW2KV0s0LjhVcuIMFuHLdpAGK69KesO0MmJI4Kzw7HSpTu9HcqkaM7K5kqE-cbqG0JPIDrSa38azekLzi4OiWkobhYOXzmj5YX6yRuKC5Psxw9fSrkzLb0knQh237uxu8CFGG8gDjmuaqD9Y7qF7PpiN6UcniqfvzR11fYTe50Oyjbrab0vQZ_Bc5iY452mzu04nlPuDkATKWqJTC8rqTsyaay9NC02knpDgE-EQALm1gMSerbJR0uAgpP20vnEmJwfZNMLqP9amLF18D90CDqYZXhcLjXDq-m9rpTPv0ujYjGRKOE8PWNqdY_zZDmt3d8HJaRiQ2d3Q9suOh8On-6Rvm7YOFCp2Xsp05FoOgBJH4K1ThLDV2DI4FSBbWPUdDZfMi45Ke6smiqIRGWGjBMCR3CTsCOoc1TPEwvy28NZj-1Fq8gaIk-2AUWOIcTXoHrqYsZBbAgeHJ8JnjFKZi8Ji6cwhdPGuPsbmCYJMzGNMrvyUERVWdgoGGxH4doUg3ozYkqY4ufmrIpsEi3tD9_XMbd1_UUGmlkdUDnxEAVeOdmZCZHTylr1ykMj0-MUzuzDWNktFyR9_bV4cMCUmODI9oec6GJdFOdSUt7mIE1C5fjOY_fXr_U4juDMSb210MOR9DwL77a1_KRHP__-NIhvy5ofTlE__eRkGBBAoRnfX28eMzZXy-oBmHpY4vf-dexjgtZo3J1b9bouxrfmdkwbR25nDJfwF3eo-JmP1OBCrR-7ZEd9SRSc1Ne0ks9h_0oI4JeJ0zm6kkcgvjHAyAp5wIk5qniuIh4BDaob7YTqjjbUD-4Yer2aMZ24dnW3KhXLOoYZe11rhCeg7ibLn3mg7tH0Ml97pff-GR7-pFuEsOwF4xYKeStFcqxlEcJe0gXzCc_?></g></svg>